<?xml version="1.0" encoding="utf-8"?>
<!-- Generator: Adobe Illustrator 24.0.1, SVG Export Plug-In . SVG Version: 6.00 Build 0)  -->
<svg version="1.1" id="Layer_1" xmlns="http://www.w3.org/2000/svg" xmlns:xlink="http://www.w3.org/1999/xlink" x="0px" y="0px"
	 viewBox="0 0 512 512" style="enable-background:new 0 0 512 512;" xml:space="preserve">
<style type="text/css">
	.st0{fill:#FFFFFF;}
</style>
<path class="st0" d="M265.3,368.6c-0.9,0-1.9,0-2.8,0.1c-2.8,0.2-5.6-0.9-7.6-2.8c-2-1.9-3.2-4.6-3.2-7.4
	c0-40.5-34.8-73.3-77.5-73.3c-34,0-63.7,20.6-74,51.2c-1.5,4.5-6.1,7.5-10.7,7c-2.1-0.2-4.2-0.3-6.4-0.3
	c-35.6,0-64.5,28.5-64.5,63.6c0,36,30.7,65,67.3,63.6c0.5,0,1.1,0,1.7,0.1h179.6c0.3,0,0.5,0,0.8-0.1c27.4-1.4,48.8-23.7,48.8-50.7
	C316.8,391.3,293.7,368.6,265.3,368.6z"/>
<path class="st0" d="M249,209.4c0.2,0,0.5,0,0.7,0.1h176.1c0.4,0,0.8-0.1,1.2-0.1c0.1,0,0.3,0,0.5,0c35.8,1.6,66-27,66-62.3
	c0-34.4-28.4-62.4-63.2-62.4c-2.1,0-4.2,0.1-6.3,0.3c-4.5,0.4-9-2.4-10.5-6.8c-10-30-39.2-50.2-72.5-50.2c-41.9,0-76,32.2-76,71.8
	c0,2.8-1.1,5.4-3.1,7.3c-2,1.9-4.7,3-7.4,2.8c-0.9,0-1.8-0.1-2.7-0.1c-27.8,0-50.5,22.3-50.5,49.8C201.1,186.2,222.1,208,249,209.4z
	"/>
<g>
	<path class="st0" d="M164.9,225.7l-91.4,12.1c-5.1,0.7-8.7,5.4-8,10.5c0.6,4.7,4.6,8.1,9.2,8.1c0.4,0,0.8,0,1.2-0.1l101.9-13.5
		c2.7-0.4,5-1.8,6.5-4.1c1.5-2.2,1.9-5,1.3-7.6l-26.2-98.7c-1.3-5-6.4-7.9-11.4-6.6c-5,1.3-7.9,6.4-6.6,11.4L164.9,225.7z"/>
	<path class="st0" d="M9.3,219.2c0.4,0,0.8,0,1.2-0.1l101.9-13.5c2.7-0.4,5-1.8,6.5-4.1c1.5-2.2,1.9-5,1.3-7.6L94,95.3
		c-1.3-5-6.4-7.9-11.4-6.6c-5,1.3-7.9,6.4-6.6,11.4l23.5,88.5L8.1,200.6c-5.1,0.7-8.7,5.4-8,10.5C0.7,215.8,4.7,219.2,9.3,219.2z"/>
	<path class="st0" d="M328.7,305.3l91.4-12.1c5.1-0.7,8.7-5.4,8-10.5c-0.7-5.1-5.4-8.7-10.5-8l-101.9,13.5c-2.7,0.4-5,1.8-6.5,4.1
		c-1.5,2.2-1.9,5-1.3,7.6l26.2,98.7c1.1,4.2,4.9,6.9,9,6.9c0.8,0,1.6-0.1,2.4-0.3c5-1.3,7.9-6.4,6.6-11.4L328.7,305.3z"/>
	<path class="st0" d="M482.8,330.6L381,344.1c-2.7,0.4-5,1.8-6.5,4.1c-1.5,2.2-1.9,5-1.3,7.6l26.2,98.7c1.1,4.2,4.9,6.9,9,6.9
		c0.8,0,1.6-0.1,2.4-0.3c5-1.3,7.9-6.4,6.6-11.4l-23.5-88.4l91.4-12.1c5.1-0.7,8.7-5.4,8-10.5C492.6,333.5,487.9,329.9,482.8,330.6z
		"/>
</g>
</svg>
